<mxfile host="Electron" modified="2023-04-13T06:50:04.498Z" agent="Mozilla/5.0 (Windows NT 10.0; Win64; x64) AppleWebKit/537.36 (KHTML, like Gecko) draw.io/21.1.2 Chrome/106.0.5249.199 Electron/21.4.3 Safari/537.36" etag="GaEu4_s4SFd1TM_k4H5x" version="21.1.2" type="device">
  <diagram name="Page-1" id="jOTbS239regMLlkqWPYL">
    <mxGraphModel dx="1218" dy="1686" grid="0" gridSize="10" guides="1" tooltips="1" connect="1" arrows="1" fold="1" page="0" pageScale="1" pageWidth="850" pageHeight="1100" math="0" shadow="0">
      <root>
        <mxCell id="0" />
        <mxCell id="1" parent="0" />
        <mxCell id="r6yLNoG1JKIrol4z2VNO-1" value="" style="rounded=1;whiteSpace=wrap;html=1;fontSize=16;" parent="1" vertex="1">
          <mxGeometry x="-176" y="-1006" width="714" height="581" as="geometry" />
        </mxCell>
        <mxCell id="r6yLNoG1JKIrol4z2VNO-3" value="" style="rounded=1;whiteSpace=wrap;html=1;fontSize=16;fillColor=#ffe6cc;strokeColor=#d79b00;" parent="1" vertex="1">
          <mxGeometry x="12" y="-775" width="331" height="100" as="geometry" />
        </mxCell>
        <mxCell id="r6yLNoG1JKIrol4z2VNO-4" value="APP" style="rounded=1;whiteSpace=wrap;html=1;fontSize=16;fillColor=#d5e8d4;strokeColor=#82b366;" parent="1" vertex="1">
          <mxGeometry x="12" y="-888" width="485" height="98" as="geometry" />
        </mxCell>
        <mxCell id="r6yLNoG1JKIrol4z2VNO-5" value="Library" style="rounded=1;whiteSpace=wrap;html=1;fontSize=16;fillColor=#f5f5f5;fontColor=#333333;strokeColor=#666666;" parent="1" vertex="1">
          <mxGeometry x="-105" y="-888" width="95" height="400" as="geometry" />
        </mxCell>
        <mxCell id="r6yLNoG1JKIrol4z2VNO-6" value="&lt;font style=&quot;font-size: 18px;&quot;&gt;System Modules&lt;/font&gt;" style="text;html=1;strokeColor=none;fillColor=none;align=center;verticalAlign=middle;whiteSpace=wrap;rounded=1;fontSize=16;" parent="1" vertex="1">
          <mxGeometry x="53" y="-974" width="250" height="30" as="geometry" />
        </mxCell>
        <mxCell id="r6yLNoG1JKIrol4z2VNO-7" value="Microcontroller" style="rounded=1;whiteSpace=wrap;html=1;fontSize=16;fillColor=#fad9d5;strokeColor=#ae4132;" parent="1" vertex="1">
          <mxGeometry x="12" y="-548" width="485" height="60" as="geometry" />
        </mxCell>
        <mxCell id="r6yLNoG1JKIrol4z2VNO-8" value="LED" style="rounded=1;whiteSpace=wrap;html=1;fontSize=16;fillColor=#ff9e42;fontColor=#000000;strokeColor=#C73500;" parent="1" vertex="1">
          <mxGeometry x="29" y="-752.62" width="110" height="55.25" as="geometry" />
        </mxCell>
        <mxCell id="r6yLNoG1JKIrol4z2VNO-11" value="DCM" style="rounded=1;whiteSpace=wrap;html=1;fontSize=16;fillColor=#ff9e42;fontColor=#000000;strokeColor=#C73500;" parent="1" vertex="1">
          <mxGeometry x="156" y="-752.63" width="170" height="55.25" as="geometry" />
        </mxCell>
        <mxCell id="r6yLNoG1JKIrol4z2VNO-16" style="edgeStyle=none;curved=1;rounded=1;orthogonalLoop=1;jettySize=auto;html=1;exitX=0.5;exitY=1;exitDx=0;exitDy=0;fontSize=12;startSize=8;endSize=8;" parent="1" edge="1">
          <mxGeometry relative="1" as="geometry">
            <mxPoint x="439" y="-684.5" as="sourcePoint" />
            <mxPoint x="439" y="-684.5" as="targetPoint" />
          </mxGeometry>
        </mxCell>
        <mxCell id="7r16tmTrZ8RSF3XwKWaC-8" value="" style="verticalLabelPosition=bottom;verticalAlign=top;html=1;shape=mxgraph.basic.polygon;polyCoords=[[0.7,0],[1,0],[1,0.25],[1,1],[0.75,1],[0,1],[0,0.53],[0.7,0.53]];polyline=0;fontSize=16;fillColor=#dae8fc;strokeColor=#6c8ebf;rounded=1;" vertex="1" parent="1">
          <mxGeometry x="12" y="-775" width="484" height="215" as="geometry" />
        </mxCell>
        <mxCell id="7r16tmTrZ8RSF3XwKWaC-10" value="TIMER" style="rounded=1;whiteSpace=wrap;html=1;fontSize=16;fillColor=#1ba1e2;fontColor=#ffffff;strokeColor=#006EAF;" vertex="1" parent="1">
          <mxGeometry x="239" y="-638.25" width="168" height="60" as="geometry" />
        </mxCell>
        <mxCell id="7r16tmTrZ8RSF3XwKWaC-11" value="DIO" style="rounded=1;whiteSpace=wrap;html=1;fontSize=16;fillColor=#1ba1e2;fontColor=#ffffff;strokeColor=#006EAF;" vertex="1" parent="1">
          <mxGeometry x="33" y="-638.25" width="190" height="60" as="geometry" />
        </mxCell>
        <mxCell id="7r16tmTrZ8RSF3XwKWaC-12" value="EXI" style="rounded=1;whiteSpace=wrap;html=1;fontSize=16;fillColor=#1ba1e2;fontColor=#ffffff;strokeColor=#006EAF;" vertex="1" parent="1">
          <mxGeometry x="422" y="-756" width="62" height="177.75" as="geometry" />
        </mxCell>
      </root>
    </mxGraphModel>
  </diagram>
</mxfile>
